# xmcd
#
# Track frame offsets:
# 150
# 24678
# 44760
# 77165
#
# Disc length: 4547 seconds
#
#
# Revision: 2
# Processed by: cddbd v1.4PL0 Copyright (c) Steve Scherf et al.
# Submitted via: FreeRIP 2.11 
#
DISCID=2f11c104
DTITLE=이수영 - Sweet Holiday in Lombok CD2
DYEAR=2003
DGENRE=Blues
TTITLE0=굿바이
TTITLE1=Farewell Blues II
TTITLE2=그렇게라도
TTITLE3=DataTrack (크리스마스 콘서트 실황, Lombok 뮤직비디오)
EXTD=
EXTT0=
EXTT1=
EXTT2=
EXTT3=
PLAYORDER=
